<svg xmlns="http://www.w3.org/2000/svg" xmlns:xlink="http://www.w3.org/1999/xlink" version="1.1" viewBox="0 0 96 120" overflow="hidden" x="0px" y="0px"><path d=" M 84.6 51.6 L 79.5 42.9 C 77.7 39.9 74.8 37.9 71.5 37.2 C 71.8 34.1 71.3 30.4 70.1 26.6 C 67.2 18.3 57.4 14 57.4 14 C 57.4 14 56.3 16 55.3 19 C 58.4 20.7 61.7 23.2 63.9 26.9 C 65.9 30.4 67.2 33.9 67.6 37 L 65.5 37 C 65 34.2 63.9 31 62.1 27.9 C 57.7 20.2 47.2 18 47.2 18 C 47.2 18 43.9 28.2 48.3 35.9 C 48.8 36.8 49.4 37.7 50 38.6 C 47.3 37.6 44.5 37.1 41.5 37.1 C 32 37.1 23.8 42.5 19.8 50.3 C 19.2 50.1 18.6 50 18 50 C 13.6 50 10 53.6 10 58 C 10 62.2 13.3 65.7 17.4 66 C 18.6 72.7 22.6 78.4 28.1 82 L 49 82 C 50.7 82 52 80.7 52 79 C 52 77.3 50.7 76 49 76 L 39.9 76 C 44.9 74.5 48.5 69.9 48.5 64.5 C 48.5 57.9 43.1 52.5 36.5 52.5 C 35.4 52.5 34.4 52.6 33.4 52.9 C 32.6 53.1 31.8 52.6 31.6 51.8 C 31.4 51 31.9 50.2 32.7 50 C 34 49.7 35.3 49.5 36.6 49.5 C 44.9 49.5 51.6 56.2 51.6 64.5 C 51.6 68.1 50.3 71.4 48.2 74 C 50.1 74 52.2 72.9 54.4 71.4 L 56.2 79.6 C 56.4 81 57.6 82 59 82 C 59.2 82 59.4 82 59.6 81.9 C 60.9 81.6 61.8 80.5 61.9 79.2 L 62 79.6 C 62.4 81 63.6 82 65 82 C 65.2 82 65.4 82 65.6 81.9 C 67.2 81.5 68.2 79.9 67.9 78.3 L 64.8 63.9 C 66.9 62.8 68.9 62 71 62 C 74.3 62 77.6 61.6 80.8 60.8 C 82.8 60.3 84.4 58.8 85 56.9 L 85.1 56.6 C 85.7 54.9 85.5 53.1 84.6 51.6 Z"/><text x="0" y="111" fill="#000000" font-size="5px" font-weight="bold" font-family="'Helvetica Neue', Helvetica, Arial-Unicode, Arial, Sans-serif">Created by Dumitriu Robert</text><text x="0" y="116" fill="#000000" font-size="5px" font-weight="bold" font-family="'Helvetica Neue', Helvetica, Arial-Unicode, Arial, Sans-serif">from the Noun Project</text></svg>