<svg xmlns:dc="http://purl.org/dc/elements/1.1/" xmlns:cc="http://creativecommons.org/ns#" xmlns:rdf="http://www.w3.org/1999/02/22-rdf-syntax-ns#" xmlns:svg="http://www.w3.org/2000/svg" xmlns="http://www.w3.org/2000/svg" version="1.2" x="0px" y="0px" viewBox="0 0 100 125"><path d="m 60.994104,5.0029862 c -2.91766,-0.07881 -5.779196,1.4050887 -7.346653,4.1200049 l -1.73619,3.0061799 -5.004176,-1.341184 c -0.825844,-0.221284 -1.654379,-0.309125 -2.464194,-0.277882 -3.509203,0.13539 -6.656451,2.520971 -7.615351,6.099628 l -0.353667,1.318218 -7.234124,0 c -4.559876,0 -8.230824,3.670948 -8.230824,8.230825 l 0,1.364148 -7.886341,2.112823 C 8.7180809,30.815931 6.1229509,35.31079 7.3031329,39.715292 L 20.480719,88.895844 c 1.180184,4.404503 5.675043,6.999633 10.079545,5.819451 l 26.734103,-7.16293 c 2.50512,-0.671246 4.421817,-2.415284 5.394589,-4.604577 0.644472,-0.633393 1.178814,-1.375633 1.586913,-2.193202 0.922211,-0.964476 1.635854,-2.155464 2.007183,-3.541276 l 0.849722,-3.171532 24.738404,-42.848972 c 2.27994,-3.948968 0.9382,-8.963955 -3.01077,-11.243893 L 64.891344,6.1099215 C 63.657291,5.3974402 62.320314,5.0388079 60.994104,5.0029862 Z m -0.925509,2.8775726 c 1.128692,-0.078901 2.292903,0.1678323 3.350663,0.7785301 L 87.388318,22.49808 c 2.82069,1.628527 3.78039,5.210333 2.15186,8.031024 L 69.482142,65.26897 79.460638,28.032758 C 80.640818,23.628256 78.043394,19.1311 73.638891,17.950917 L 54.262925,12.758425 55.388232,10.810953 C 56.406063,9.04802 58.187444,8.0120603 60.068595,7.8805588 Z M 45.120372,12.868659 c 0.390547,0.02383 0.784869,0.08524 1.178129,0.190613 l 4.39559,1.178129 2.351664,0.629253 19.984552,5.355548 c 3.146072,0.842988 4.999737,4.055897 4.156749,7.201971 l -12.040795,44.93883 0,-46.204227 c 0,-4.559877 -3.670947,-8.230825 -8.230824,-8.230825 l -18.007224,0 0.190613,-0.709633 c 0.737615,-2.752813 3.287713,-4.516494 6.021546,-4.349659 z m -15.880623,7.410956 27.673392,0 c 3.257052,0 5.87916,2.622106 5.87916,5.879161 l 0,50.115247 -12.85607,-47.981756 c -0.958899,-3.578657 -4.106148,-5.961942 -7.61535,-6.097332 -0.809816,-0.03124 -1.640647,0.0566 -2.466491,0.277882 l -16.493801,4.418557 0,-0.732598 c 0,-3.257055 2.622106,-5.879161 5.87916,-5.879161 z m 43.35651,2.262099 -3.509124,4.659694 1.279177,0.342185 0.665999,-0.941584 1.988809,0.532799 0.105641,1.148274 1.279177,0.342185 -0.707337,-5.789595 -1.102342,-0.293958 z m -15.501692,0.08957 -2.184016,5.408369 1.325108,0 0.399599,-1.081674 2.057706,0 0.399599,1.081674 1.325107,0 -2.184016,-5.408369 -1.139087,0 z m 29.568041,1.478977 -4.59539,3.594095 1.14827,0.661406 0.88647,-0.737191 1.78442,1.028853 -0.19521,1.13679 1.14598,0.663702 0.81527,-5.775815 -0.98981,-0.57184 z m -13.956115,0.190613 0.01378,0.0046 0.174537,1.67648 -1.178129,-0.316924 0.989812,-1.364149 z m -15.049272,0.0023 0.01378,0 0.603992,1.573135 -1.219467,0 0.601695,-1.573135 z m -16.016118,0.248019 c 2.733833,-0.166835 5.283931,1.596846 6.021546,4.349659 l 13.179882,49.180553 c 0.316122,1.179778 0.253838,2.368261 -0.114827,3.43793 -0.0025,0.0021 -0.0044,0.0048 -0.0069,0.0069 -0.0038,0.01106 -0.0099,0.02111 -0.01378,0.03215 -0.07505,0.212852 -0.176971,0.412727 -0.277882,0.613179 -0.03619,0.07414 -0.06409,0.152541 -0.103345,0.225061 -0.0012,0.0021 -0.0011,0.0048 -0.0023,0.0069 -0.0029,0.0054 -0.0062,0.01067 -0.0092,0.01608 -0.149109,0.264035 -0.319634,0.516563 -0.505241,0.757861 -0.05601,0.07277 -0.101305,0.152597 -0.160759,0.222765 -0.05064,0.05986 -0.107669,0.114365 -0.160757,0.17224 -0.184256,0.200485 -0.382444,0.3883 -0.594807,0.562655 -0.05797,0.04767 -0.112262,0.09913 -0.17224,0.144682 -0.262112,0.198703 -0.544744,0.375934 -0.842833,0.530503 -0.105822,0.05491 -0.213742,0.107344 -0.323814,0.156165 -0.07711,0.03417 -0.152831,0.06997 -0.23195,0.101048 -0.206873,0.08131 -0.418408,0.154621 -0.638441,0.213578 l -0.08497,0.02297 -26.646834,7.139964 c -3.146073,0.842988 -6.356686,-1.010677 -7.199674,-4.156749 L 9.5744189,39.106707 c -0.842988,-3.146073 1.0106771,-6.356686 4.1567491,-7.199674 l 7.854191,-2.103637 1.77523,-0.477682 17.102385,-4.581611 c 0.39326,-0.105374 0.787582,-0.169077 1.178129,-0.19291 z m 44.674725,1.290659 0.0115,0.0046 -0.2641,1.664997 -1.05641,-0.608585 1.30903,-1.061005 z m -43.967388,0.83135 -1.102343,0.296254 -0.709633,5.789595 1.279177,-0.342185 0.105641,-1.148274 1.98881,-0.532799 0.665998,0.939288 1.279177,-0.342185 -3.506827,-4.659694 z m -0.112531,1.761452 0.989811,1.364148 -1.178129,0.314627 0.174539,-1.676479 0.01378,-0.0023 z m 27.457515,0.663702 c -0.720596,-0.02555 -1.412912,0.512915 -1.630549,1.325107 -0.727781,1.728501 1.221443,4.682994 1.67648,4.9215 -0.0012,0.002 -0.0013,0.0047 -0.0023,0.0069 0.0036,7.27e-4 0.0099,-0.0051 0.01378,-0.0046 0.0051,0.0022 0.01165,0.01 0.01608,0.01148 5.92e-4,-0.0048 0.0037,-0.0092 0.0046,-0.01378 0.523545,0.01403 3.675179,-1.558098 3.908723,-3.414965 0.248704,-0.928191 -0.215001,-1.85785 -1.038039,-2.078375 -0.576785,-0.154543 -1.173929,0.07725 -1.566245,0.551171 -0.103803,-0.604931 -0.499158,-1.104251 -1.074784,-1.258507 -0.102876,-0.02757 -0.204795,-0.04228 -0.307737,-0.04593 z m -12.029313,0.424861 -2.776526,3.189904 2.776526,3.189904 2.776526,-3.189904 -2.776526,-3.189904 z m 26.010687,0.783123 c -10e-4,0.0036 -0.003,0.008 -0.005,0.01148 0,0 -3.62833,0.218366 -4.17053,1.64892 -0.391305,0.677769 -0.132298,1.557634 0.57873,1.96814 0.32981,0.190413 0.6968,0.234249 1.03574,0.172242 -0.0145,0.03404 -0.0188,0.06112 0.0184,0.06201 -0.94945,0.552628 -1.977331,0.429454 -1.977331,0.429454 l 1.538691,0.886468 0.0138,0.0092 1.54098,0.888764 c 0,0 -0.62448,-0.831829 -0.62007,-1.931397 0.0172,0.02841 0.0422,0.02302 0.0712,0.0023 0.11563,0.319573 0.33348,0.608885 0.65911,0.796901 0.711,0.410522 1.60207,0.193214 1.9934,-0.484571 0.96991,-1.187316 -0.65451,-4.439226 -0.65451,-4.439226 0.002,-0.0013 0.003,-0.0032 0.005,-0.0046 -0.003,-0.0016 -0.0104,-7.04e-4 -0.0138,-0.0023 -0.004,-0.0033 -0.01,-0.01132 -0.0138,-0.01378 z m -39.721072,3.123303 a 1.3938584,1.3938584 0 0 0 -0.374337,0.04823 1.3938584,1.3938584 0 0 0 -0.985219,1.706334 1.3938584,1.3938584 0 0 0 0.51213,0.755565 1.4986599,1.4986599 0 0 0 -0.181427,0.03445 1.4986599,1.4986599 0 0 0 -1.058709,1.837237 1.4986599,1.4986599 0 0 0 1.834941,1.058709 1.4986599,1.4986599 0 0 0 0.645331,-0.362855 c -0.321531,1.217085 -1.090861,1.664997 -1.090861,1.664997 l 1.965845,-0.528206 0.02067,-0.0046 1.965845,-0.528206 c 0,0 -0.890153,-0.0012 -1.777528,-0.895653 a 1.4986599,1.4986599 0 0 0 0.741785,-0.0069 1.4986599,1.4986599 0 0 0 1.058708,-1.834941 1.4986599,1.4986599 0 0 0 -1.83494,-1.061005 1.4986599,1.4986599 0 0 0 -0.176835,0.06201 1.3938584,1.3938584 0 0 0 0.0689,-0.91173 1.3938584,1.3938584 0 0 0 -1.334294,-1.033446 z m -10.231117,14.8977 a 4.5729333,4.5729333 0 0 0 -1.224059,0.156165 4.5729333,4.5729333 0 0 0 -3.233538,5.601278 4.5729333,4.5729333 0 0 0 1.676479,2.475678 4.9167628,4.9167628 0 0 0 -0.590212,0.114827 4.9167628,4.9167628 0 0 0 -3.476973,6.021546 4.9167628,4.9167628 0 0 0 6.021546,3.476972 4.9167628,4.9167628 0 0 0 2.112823,-1.189612 c -1.0546,3.993097 -3.575722,5.458893 -3.575722,5.458893 l 6.453296,-1.7293 0.06201,-0.01608 6.453297,-1.7293 c 0,0 -2.919622,-0.0069 -5.830932,-2.941877 a 4.9167628,4.9167628 0 0 0 2.429746,-0.02296 4.9167628,4.9167628 0 0 0 3.476973,-6.021546 4.9167628,4.9167628 0 0 0 -6.023843,-3.476972 4.9167628,4.9167628 0 0 0 -0.574136,0.1998 4.5729333,4.5729333 0 0 0 0.220468,-2.987808 4.5729333,4.5729333 0 0 0 -4.377219,-3.389703 z m -6.563531,28.69076 -1.965844,0.52591 -0.01837,0.0069 -1.968141,0.52591 c 0,0 0.890531,0.0024 1.777528,0.895653 a 1.4986599,1.4986599 0 0 0 -0.739489,0.0092 1.4986599,1.4986599 0 0 0 -1.061004,1.834941 1.4986599,1.4986599 0 0 0 1.834941,1.058709 1.4986599,1.4986599 0 0 0 0.174537,-0.05971 1.3938584,1.3938584 0 0 0 -0.0643,0.909433 1.3938584,1.3938584 0 0 0 1.706334,0.987515 1.3938584,1.3938584 0 0 0 0.985219,-1.708631 1.3938584,1.3938584 0 0 0 -0.514427,-0.755563 1.4986599,1.4986599 0 0 0 0.183724,-0.03445 1.4986599,1.4986599 0 0 0 1.058709,-1.834941 1.4986599,1.4986599 0 0 0 -1.834942,-1.061005 1.4986599,1.4986599 0 0 0 -0.645329,0.365151 c 0.321224,-1.218387 1.090854,-1.665022 1.090854,-1.665022 z m 2.719112,7.413254 -1.279177,0.342186 -0.105641,1.148273 -1.98881,0.532799 -0.665998,-0.941584 -1.279177,0.342185 3.509124,4.659694 1.102343,-0.293958 0.707336,-5.789595 z m -1.511128,2.643326 -0.174538,1.676479 -0.01378,0.0023 -0.989812,-1.361852 1.178128,-0.316923 z" style="color:#000000;clip-rule:nonzero;display:inline;overflow:visible;visibility:visible;opacity:1;isolation:auto;mix-blend-mode:normal;color-interpolation:sRGB;color-interpolation-filters:linearRGB;solid-color:#000000;solid-opacity:1;fill:#000000;fill-opacity:1;fill-rule:nonzero;stroke:none;stroke-width:0.99521232px;stroke-linecap:butt;stroke-linejoin:miter;stroke-miterlimit:4;stroke-dasharray:none;stroke-dashoffset:0;stroke-opacity:1;marker:none;color-rendering:auto;image-rendering:auto;shape-rendering:auto;text-rendering:auto;enable-background:accumulate"/><flowRoot style="text-align:start;letter-spacing:0px;word-spacing:0px;text-anchor:start;" xml:space="preserve" font-size="16px" font-style="normal" font-variant="normal" font-weight="normal" font-stretch="normal" line-height="125%" fill="#000000" fill-opacity="1" stroke="none" font-family="PT Sans Narrow"><flowRegion><rect y="271.08389" x="-260.37109" height="31.75988" width="4.1947012"/></flowRegion><flowPara>r</flowPara></flowRoot><flowRoot style="text-align:start;letter-spacing:0px;word-spacing:0px;text-anchor:start;" xml:space="preserve" font-size="16px" font-style="normal" font-variant="normal" font-weight="normal" font-stretch="normal" line-height="125%" fill="#000000" fill-opacity="1" stroke="none" font-family="PT Sans Narrow"><flowRegion><rect y="272.582" x="-276.55066" height="118.05088" width="161.19638"/></flowRegion><flowPara/></flowRoot><text x="0" y="115" fill="#000000" font-size="5px" font-weight="bold" font-family="'Helvetica Neue', Helvetica, Arial-Unicode, Arial, Sans-serif">Created by Bonegolem</text><text x="0" y="120" fill="#000000" font-size="5px" font-weight="bold" font-family="'Helvetica Neue', Helvetica, Arial-Unicode, Arial, Sans-serif">from the Noun Project</text></svg>