<svg xmlns="http://www.w3.org/2000/svg" xmlns:xlink="http://www.w3.org/1999/xlink" version="1.0" x="0px" y="0px" viewBox="0 0 100 125" enable-background="new 0 0 100 100" xml:space="preserve"><ellipse transform="matrix(0.9987935 -0.0491061 0.0491061 0.9987935 -2.121114 4.1572366)" cx="83.5466232" cy="45.2470703" rx="3.0125406" ry="3.9871018"/><ellipse transform="matrix(0.0596138 -0.9982215 0.9982215 0.0596138 -39.2586021 67.2938232)" cx="16.0869541" cy="54.483448" rx="3.8840766" ry="2.9260154"/><ellipse transform="matrix(0.6487123 -0.7610337 0.7610337 0.6487123 -27.6185398 59.0224915)" cx="50.1242409" cy="59.4278107" rx="3.8863633" ry="2.9110858"/><ellipse transform="matrix(0.6487123 -0.7610337 0.7610337 0.6487123 -39.6609116 58.9488678)" cx="44.023304" cy="72.4353638" rx="3.8863633" ry="2.9110858"/><ellipse transform="matrix(0.6487123 -0.7610337 0.7610337 0.6487123 -45.704689 47.3792381)" cx="28.4691238" cy="73.1972046" rx="3.8863633" ry="2.9110858"/><ellipse transform="matrix(0.6487123 -0.7610337 0.7610337 0.6487123 -33.455204 47.4317741)" cx="34.6507759" cy="59.9547615" rx="3.8863633" ry="2.9110858"/><ellipse transform="matrix(0.9078113 -0.4193788 0.4193788 0.9078113 -8.4838743 28.6040058)" cx="60.819828" cy="33.5991554" rx="3.9871018" ry="3.0125406"/><ellipse transform="matrix(0.9078113 -0.4193788 0.4193788 0.9078113 -6.4040818 26.2468033)" cx="56.4981041" cy="27.6899223" rx="3.8433158" ry="2.9038999"/><ellipse transform="matrix(0.9078113 -0.4193788 0.4193788 0.9078113 -11.085535 30.8182526)" cx="64.5554504" cy="40.6239319" rx="3.9871018" ry="3.0125406"/><path d="M94.3454437,43.5798454L84.9833603,25.226532c-0.2780685-0.556139-1.5757446-2.8734779-2.4100037-3.4296722  c-0.8342667-0.6488094-4.2638855-0.556139-4.820076-0.556139H57.546093c-2.4100647,0-5.1908722,1.5758018-6.3958778,3.6150703  l-5.0054169,8.2496929c-1.4831314-1.1123333-3.3370018-1.9465408-5.0054741-1.9465408H21.8590755  c-0.5561943,0-4.5686531-0.4553776-7.2300854,3.9858093l-8.8986149,17.519104  c-1.1123343,2.1319427-0.9269357,5.3762169,0.3707967,7.3227577l9.8254938,15.2017632  c0.2780695,0.4634705,2.0439653,3.4190369,4.4492788,3.8931427c2.4053707,0.4740448,23.2661152,0.9269333,23.3587894,0.9269333  c2.4100647,0,5.0054741-1.6685257,6.0250778-3.8004684l4.5420074-9.4546967c0,0,1.6250229,3.9012299,6.3958206,4.2638855  c0,0,13.6964035,0.1979523,17.7459717-0.2243805c3.6553574-0.6926575,4.1814499-2.2783585,5.1493454-3.8541641  l10.2890244-15.9432983C95.179657,48.8633881,95.3650513,45.7118416,94.3454437,43.5798454z M52.726017,25.7827282  c0.9269371-1.4831314,3.1516037-2.6881371,4.820076-2.6881371h20.2071877c0.6488647,0,2.0856018,0.0834503,1.0195999,1.7612  l-10.8451004,18.075243c-0.9269333,1.4830742-3.0589294,2.7808075-4.8200722,2.7808075l-7.9716225,0.0926704l-2.8113594-4.1378288  c1.9146347-0.9474716,2.909008-2.8674812,2.2264786-4.3448982c-0.6977463-1.5103989-2.8838882-1.9862022-4.8829308-1.0627174  c-0.3095245,0.1430244-0.4762535,0.2824821-0.7375221,0.4701996c0,0-1.3752975-1.9934998-1.5809479-2.3260498L52.726017,25.7827282z   M21.8590755,32.9200859h3.3369446c-0.6313267,0.2545357-1.1693611,0.6741562-1.4359455,1.2718201  c-0.6645947,1.4900322,0.3825645,3.4052315,2.3388939,4.2777443c1.9562721,0.872509,4.0808582,0.3719254,4.7454529-1.1181068  c0.6645374-1.489975-0.3826218-3.4052315-2.3388939-4.2777405c-0.1031952-0.0459976-0.2581558-0.1137733-0.3620281-0.1521912  l12.9031544-0.0015259c1.7611427,0,4.0784798,1.2050629,5.0054169,2.6881371l9.640152,14.1821022  c0.3707962,0.5561943,1.1615562,1.5758018-0.8342628,1.5758018l-19.7437172-0.1853981  c-1.7612,0-4.0785389-1.2976761-5.0054741-2.6880798l-9.1766281-13.8113632  C20.0080891,33.2729492,20.5729408,32.9200859,21.8590755,32.9200859z M19.4490089,74.1687164  c-0.2857628,0.8018494-0.9809647,1.3039017-1.9465408,0.0927277L7.6769733,59.0596809  c-0.9269357-1.4830742-1.0196633-3.9858131-0.2781262-5.4688873l8.8986149-17.519104  c0.4808369-0.7710686,1.2194881-1.4083366,2.1319408-0.0926704l9.640152,14.1821022  c0.9269352,1.3904037,1.112278,3.8931389,0.3707409,5.4688835L19.4490089,74.1687164z M48.0913391,75.4664536  c-0.7415352,1.4830704-2.7808075,2.7807999-4.4492798,2.6881332L22.3225441,77.505722  c-1.6530285-0.1405945-1.5758018-1.5758057-1.2977333-2.1319427l9.0839577-19.0021782  c0.7415924-1.4831314,2.7808075-2.7808075,4.449337-2.7808075l21.5975838,0.2780685  c1.1760406,0,2.0450401,0.3035851,1.2976761,2.0392685L48.0913391,75.4664536z M77.2898102,69.0705719  c0,0-12.6497498,0.0927277-16.4994431,0.0927277s-5.3762131-4.4492798-5.3762131-4.4492798l3.3369446-6.9520149  c-0.3659897,1.1008492-0.1011009,2.518013,0.7957382,3.7449684c1.299427,1.7777748,3.4416656,2.4230232,4.7848816,1.4412079  c1.3432236-0.9818153,1.3787537-3.2188721,0.0793228-4.9966507c-1.2994308-1.7777176-3.4417229-2.4229622-4.7849426-1.4411507  c-0.119091,0.0870705-0.2278862,0.1839294-0.3263855,0.2895546c0,0,0.7507591-1.8190193,0.5769577-2.9843102  c-0.2433891-1.6319237-0.4533958-1.3300362-1.7338753-3.611618c-0.6637993-1.1827698-1.2455673-2.174881-1.2455673-2.174881  l8.6204872-0.2780724c1.6684723,0,3.3005142,0.6714973,4.4492798,2.6881371l8.7132187,16.7775078  C79.476799,68.3661499,77.9386749,69.0705719,77.2898102,69.0705719z M92.3988495,49.8830528L82.1098862,65.8262939  c-0.7357635,1.3522186-1.7640839,0.7873688-2.1319427-0.0926666l-9.0840149-17.7971725  c-0.7415314-1.5758018-0.6488037-4.0784836,0.1854019-5.561615l10.1962891-16.4067707  c0.9240494-1.6748085,1.4309692-0.9216728,1.9466019,0.0927277l9.3620224,18.3533115  C93.4185104,45.8971825,93.3257828,48.4926491,92.3988495,49.8830528z"/><ellipse transform="matrix(0.4073275 -0.9132822 0.9132822 0.4073275 -13.4807568 72.1810226)" cx="48.8735046" cy="46.4771347" rx="3.0299037" ry="3.9235277"/><ellipse transform="matrix(0.9078113 -0.4193788 0.4193788 0.9078113 -4.7914519 32.53442)" cx="71.6060333" cy="27.1656952" rx="3.9871018" ry="3.0125406"/><ellipse transform="matrix(0.8579364 -0.5137559 0.5137559 0.8579364 -22.9653244 46.5955772)" cx="72.7709961" cy="64.8234634" rx="3.0125406" ry="3.9871018"/><text x="0" y="115" fill="#000000" font-size="5px" font-weight="bold" font-family="'Helvetica Neue', Helvetica, Arial-Unicode, Arial, Sans-serif">Created by Andy Ivandikov</text><text x="0" y="120" fill="#000000" font-size="5px" font-weight="bold" font-family="'Helvetica Neue', Helvetica, Arial-Unicode, Arial, Sans-serif">from the Noun Project</text></svg>