<svg xmlns="http://www.w3.org/2000/svg" xmlns:xlink="http://www.w3.org/1999/xlink" xml:space="preserve" version="1.1" style="shape-rendering:geometricPrecision;text-rendering:geometricPrecision;image-rendering:optimizeQuality;" viewBox="0 0 0.399 0.46875" x="0px" y="0px" fill-rule="evenodd" clip-rule="evenodd"><defs><style type="text/css">
   
    .fil0 {fill:black;fill-rule:nonzero}
   
  </style></defs><g><path class="fil0" d="M0.153 0.253c-0.017,0.004 -0.031,0.009 -0.041,0.015 -0.008,0.004 -0.012,0.009 -0.012,0.013 0,0.008 0.012,0.016 0.032,0.023 0.023,0.008 0.055,0.012 0.09,0.012 0.035,0 0.067,-0.004 0.09,-0.012 0.02,-0.007 0.032,-0.015 0.032,-0.023 0,-0.006 -0.01,-0.013 -0.025,-0.02 -0.018,-0.007 -0.043,-0.012 -0.072,-0.014l-0.002 0.005c-0.008,0.014 -0.03,0.017 -0.058,0.011 -0.011,-0.002 -0.022,-0.005 -0.034,-0.01zm0.185 -0.141l-0.006 -0.023c-0.01,0.005 -0.021,0.009 -0.033,0.014l0.006 0.023c0.012,-0.005 0.023,-0.009 0.033,-0.014zm0.009 -0.032l0.006 0.023 0.003 -0.002c0.017,-0.011 0.027,-0.022 0.025,-0.03l-0.004 -0.014c-0.005,0.006 -0.013,0.013 -0.022,0.019 -0.003,0.001 -0.005,0.003 -0.008,0.004zm-0.058 0.052l-0.006 -0.024c-0.006,0.002 -0.011,0.004 -0.017,0.005l0 0c-0.006,0.002 -0.011,0.003 -0.017,0.004l0.006 0.024c0.006,-0.002 0.011,-0.003 0.017,-0.005 0.006,-0.001 0.012,-0.003 0.017,-0.004zm-0.148 -0.012l0.004 0.014c0.002,0.008 0.016,0.012 0.037,0.014l0.003 0 -0.006 -0.023c-0.003,0 -0.006,0 -0.008,0 -0.012,-0.001 -0.021,-0.002 -0.03,-0.005zm0.062 0.028c0.011,-0.001 0.023,-0.002 0.035,-0.004l-0.006 -0.023c-0.012,0.002 -0.024,0.003 -0.035,0.004l0.006 0.023zm0.184 -0.121l0.011 0.04c0.004,0.015 -0.009,0.033 -0.033,0.049 -0.021,0.014 -0.053,0.028 -0.088,0.037 -0.01,0.003 -0.02,0.005 -0.03,0.007 0.007,0.008 0.013,0.016 0.016,0.023 0.007,0.013 0.008,0.024 0.002,0.033l0 0 -0.008 0.015c0.027,0.002 0.05,0.007 0.068,0.014 0.023,0.009 0.036,0.022 0.036,0.036l0 0.042c0,0.016 -0.016,0.03 -0.044,0.039 -0.024,0.008 -0.058,0.013 -0.095,0.013 -0.037,0 -0.071,-0.005 -0.095,-0.013 -0.028,-0.009 -0.044,-0.023 -0.044,-0.039l0 -0.042c0,-0.011 0.007,-0.021 0.02,-0.028 0.007,-0.004 0.015,-0.008 0.024,-0.011 -0.01,-0.004 -0.019,-0.009 -0.029,-0.015l0 0c-0.032,-0.018 -0.059,-0.039 -0.076,-0.059 -0.019,-0.021 -0.027,-0.042 -0.019,-0.056l0.021 -0.036 0 0c0.006,-0.011 0.021,-0.015 0.041,-0.014 0.016,0.001 0.035,0.007 0.057,0.015 0.005,-0.009 0.015,-0.019 0.028,-0.027 0.022,-0.015 0.053,-0.028 0.089,-0.038 0.036,-0.009 0.07,-0.013 0.095,-0.012 0.029,0.002 0.049,0.011 0.053,0.027zm-0.161 0.136c-0.016,0.002 -0.032,0.003 -0.045,0.002 -0.028,-0.002 -0.048,-0.011 -0.053,-0.026l-0.01 -0.04c-0.001,-0.002 -0.001,-0.004 -0.001,-0.005 -0.02,-0.008 -0.039,-0.013 -0.053,-0.014 -0.013,-0.001 -0.022,0 -0.025,0.005 -0.004,0.007 0.003,0.02 0.017,0.036 0.015,0.018 0.04,0.037 0.07,0.055l0.001 0c0.031,0.018 0.061,0.03 0.084,0.035 0.021,0.004 0.035,0.003 0.039,-0.004 0.002,-0.003 0.001,-0.009 -0.002,-0.016 -0.004,-0.008 -0.012,-0.018 -0.022,-0.028zm0.119 -0.102c0.018,-0.011 0.027,-0.022 0.025,-0.03 -0.002,-0.007 -0.016,-0.012 -0.037,-0.013 -0.024,-0.002 -0.056,0.002 -0.09,0.011 -0.034,0.009 -0.063,0.022 -0.083,0.035 -0.018,0.012 -0.027,0.023 -0.025,0.03 0.002,0.008 0.016,0.012 0.037,0.014 0.024,0.001 0.056,-0.002 0.09,-0.012l0 0c0.034,-0.009 0.063,-0.021 0.083,-0.035zm-0.308 0.098l0.011 -0.02c-0.002,-0.003 -0.004,-0.005 -0.005,-0.007 -0.008,-0.008 -0.014,-0.016 -0.017,-0.024l-0.008 0.013c-0.004,0.007 0.003,0.02 0.017,0.036l0.002 0.002zm0.024 -0.008l-0.011 0.02c0.008,0.008 0.017,0.015 0.027,0.022l0.012 -0.02c-0.01,-0.008 -0.019,-0.015 -0.028,-0.022zm0.043 0.031l-0.012 0.021c0.004,0.003 0.009,0.006 0.014,0.009l0.001 0c0.005,0.003 0.01,0.006 0.015,0.009l0.012 -0.021c-0.005,-0.002 -0.009,-0.005 -0.013,-0.007l-0.002 -0.002c-0.006,-0.003 -0.011,-0.006 -0.015,-0.009zm0.045 0.025l-0.012 0.021c0.012,0.006 0.023,0.01 0.033,0.013l0.012 -0.02c-0.01,-0.004 -0.021,-0.008 -0.033,-0.014zm0.05 0.019l-0.011 0.02 0.002 0c0.021,0.005 0.036,0.004 0.04,-0.003l0.007 -0.013c-0.008,0.001 -0.018,0 -0.029,-0.002 -0.003,-0.001 -0.006,-0.002 -0.009,-0.002zm-0.064 0.12l0 -0.023c-0.003,-0.001 -0.006,-0.002 -0.008,-0.003 -0.011,-0.003 -0.02,-0.007 -0.027,-0.012l0 0.015c0,0.008 0.012,0.016 0.032,0.022l0.003 0.001zm0.017 -0.019l0 0.024c0.011,0.002 0.023,0.004 0.035,0.005l0 -0.024c-0.012,-0.001 -0.024,-0.003 -0.035,-0.005zm0.053 0.006l0 0.024c0.005,0.001 0.011,0.001 0.017,0.001 0.006,0 0.012,0 0.017,-0.001l0 -0.024c-0.005,0.001 -0.011,0.001 -0.017,0.001 -0.006,0 -0.012,0 -0.017,-0.001zm0.052 -0.001l0 0.024c0.012,-0.001 0.024,-0.003 0.035,-0.005l0 -0.024c-0.011,0.002 -0.023,0.004 -0.035,0.005zm0.052 -0.009l0 0.023 0.003 -0.001c0.02,-0.006 0.032,-0.014 0.032,-0.022l0 -0.015c-0.007,0.005 -0.016,0.009 -0.027,0.012 -0.002,0.001 -0.005,0.002 -0.008,0.003z"/></g><text x="0" y="15.375" fill="#000000" font-size="5px" font-weight="bold" font-family="'Helvetica Neue', Helvetica, Arial-Unicode, Arial, Sans-serif">Created by Deemak Daksina</text><text x="0" y="20.375" fill="#000000" font-size="5px" font-weight="bold" font-family="'Helvetica Neue', Helvetica, Arial-Unicode, Arial, Sans-serif">from the Noun Project</text></svg>