<svg xmlns="http://www.w3.org/2000/svg" viewBox="0 0 92.66 101.7125" x="0px" y="0px"><title>Hopping Bunny</title><g data-name="Layer 2"><g data-name="Running bunny"><path d="M87.06,64.82c0-.49-.33-.61-.61-.73A25.14,25.14,0,0,1,83,62.23a19.74,19.74,0,0,1-3.95-3.49,4,4,0,0,1-1.25-2.48,2.77,2.77,0,0,0-.3-.39,16.81,16.81,0,0,1-3.69-4,27.08,27.08,0,0,1-2.35-4.27c-.35-.7-.64-1.43-.93-2.15a4.86,4.86,0,0,1-.67-2.23,15.64,15.64,0,0,0-2.46-4.83c-.71-.85-1.33-1.77-2.08-2.59a18.7,18.7,0,0,0-2.41-2.27,23.22,23.22,0,0,0-7.27-3.72,29.68,29.68,0,0,0-12.35-1.17,18.91,18.91,0,0,1-2,.11,40.57,40.57,0,0,0-5.05.4,12.47,12.47,0,0,1-4.66,0A5.41,5.41,0,0,1,30,28.49a10.34,10.34,0,0,1-3.15-2.58,4,4,0,0,0-.71-.62c-.21-.48.09-.9.11-1.34-.48-.52-1.52,0-1.77-.91a.92.92,0,0,1,.72-.21c.78,0,1.56-.1,2.34-.08a17,17,0,0,0,5-.75c4.46-1.23,9-2.16,13.5-3.22,2.6-.62,5.16-1.37,7.71-2.19a27.47,27.47,0,0,0,4.09-1.81c.35.21.23.43.06.63A5.92,5.92,0,0,1,56,16.8a32.07,32.07,0,0,1-4.87,2c-3,1-6.14,1.76-9.25,2.46l-7.05,1.58a35.58,35.58,0,0,1-7,1c.07.24.06.47.18.57A9.62,9.62,0,0,0,31,26.37a7.37,7.37,0,0,0,4,.34,34.11,34.11,0,0,1,4.07-.54c.78,0,1.56-.1,2.34-.12a25.63,25.63,0,0,0,2.73-.16,17.27,17.27,0,0,1,2.93-.1,40.5,40.5,0,0,1,9.46,1.38A23.45,23.45,0,0,1,65.9,32.3a25.15,25.15,0,0,1,2.35,2.62,30.52,30.52,0,0,0,2.6,3A10.28,10.28,0,0,1,78,39.35c.46-.15.94-.32,1.43-.46a1,1,0,0,1,1.17,1.28,3.18,3.18,0,0,1-.76,1.35,30.72,30.72,0,0,1-2.3,2.12,6.9,6.9,0,0,1-3.24,1.75.69.69,0,0,0-.15.88,34.73,34.73,0,0,0,4.94,8.62A5.46,5.46,0,0,1,79.94,56a4.74,4.74,0,0,0,1.84,2,68.33,68.33,0,0,0,6,4,2.55,2.55,0,0,1,1.51,2.7s.06.1.1.16l.89.32c0,.48-.34.68-.65.84a4,4,0,0,1-1.88.47c-1.11,0-2.21.06-3.31.09-.16,1.26,0,1.59,1,2.19a.57.57,0,0,1,.26.82,1.8,1.8,0,0,1-1.3,1.09,5.29,5.29,0,0,1-1.36.11,36,36,0,0,1-6.21-.74,9.39,9.39,0,0,1-2.19-.81,19.25,19.25,0,0,0-2.11-1A23.67,23.67,0,0,1,68.88,66a4.12,4.12,0,0,1-.77-.61C67,64.36,66,63.31,64.92,62.24a18.23,18.23,0,0,1-4.38-8,2.46,2.46,0,0,1,0-.77c0-.12.1-.32.17-.33a.73.73,0,0,1,.53.09,2.15,2.15,0,0,1,.43.64,20.62,20.62,0,0,0,5.19,6.56c.85.71,1.66,1.47,2.49,2.21a14.28,14.28,0,0,0,4.79,3,7.15,7.15,0,0,1,1.07.47,21.54,21.54,0,0,0,6.55,1.84c.09,0,.21-.11.34-.17a2.53,2.53,0,0,0-.58-1.39c-.11-.07-.21-.19-.33-.21a15.91,15.91,0,0,1-7-3.37A19.75,19.75,0,0,1,69,57.2a4,4,0,0,0-.87-1c-.85-.71-1.68-1.45-2.47-2.22a55.16,55.16,0,0,0-5.53-4.67,17.88,17.88,0,0,0-3.55-2.05C55.3,46.64,54,46,52.69,45.44a23.17,23.17,0,0,0-4.82-1.57,11.08,11.08,0,0,1-1.69-.47,15,15,0,0,0-4.6-.86,35.27,35.27,0,0,0-5.27,0,22.15,22.15,0,0,1-2.74,0,48.83,48.83,0,0,0-7,.38,39.25,39.25,0,0,0-4.2.89c-1.14.27-2.27.61-3.4.91a30,30,0,0,0-6.53,2.6c-1,.52-2,1-3,1.48,0,0-.12,0-.18,0s-.16-.16,0-.29a2.4,2.4,0,0,1,.27-.28,45.4,45.4,0,0,1,5.07-3.32,24.46,24.46,0,0,1,4.14-1.74,50.07,50.07,0,0,1,7-1.82,33.24,33.24,0,0,1,3.88-.44,118.52,118.52,0,0,1,13.11-.12,11.67,11.67,0,0,1,2.9.43c1.24.42,2.53.6,3.8.92a27.39,27.39,0,0,1,3,.85,44.83,44.83,0,0,1,9.23,4.2,38.86,38.86,0,0,1,6.56,5.54,27.07,27.07,0,0,1,1.7,2.14,2.38,2.38,0,0,1,.56,1.44,2.38,2.38,0,0,0,.83,1.7,24.47,24.47,0,0,0,7.93,5.61,13.8,13.8,0,0,0,3.21.83A34,34,0,0,0,87.06,64.82ZM71.73,39.62c.31,1,.55,1.76.83,2.55a.77.77,0,0,0,1,.41,9.22,9.22,0,0,0,2.5-1.8s0-.12,0-.19A4.44,4.44,0,0,0,71.73,39.62Z"/><path d="M37.47,11.21a2.48,2.48,0,0,0,1.9.11,32.59,32.59,0,0,1,8.32-.86,50.33,50.33,0,0,1,6.61.51,10.66,10.66,0,0,1,4.52,1.72.68.68,0,0,1,.39.66,3,3,0,0,1-1.68-.12,27.93,27.93,0,0,0-5.82-.57c-.78,0-1.56,0-2.35,0a37.34,37.34,0,0,0-10.79,1.48c-2.31.66-4.64,1.3-6.89,2.19A29.36,29.36,0,0,0,23,21.11a.56.56,0,0,1-.72,0,.66.66,0,0,1-.22-.7,5,5,0,0,1,.56-1,14.32,14.32,0,0,1,4.16-3.49,27.46,27.46,0,0,1,4.74-2.28,8.22,8.22,0,0,1,2.56-.94c.14-.67.12-1.38.86-1.65a34.49,34.49,0,0,0,7.26-8.89,1.73,1.73,0,0,0,.11-.37V1.73l0,.09c-.19,0-.4-.13-.55-.07A79.39,79.39,0,0,0,30.08,7.49a61,61,0,0,0-9.32,7.1,9.64,9.64,0,0,0-2.82,3.93.44.44,0,0,1-.28.24.37.37,0,0,1-.32-.11,1.09,1.09,0,0,1-.07-.94,8,8,0,0,1,1.81-3.21,41.73,41.73,0,0,1,4.56-4.28A49.2,49.2,0,0,1,38.22,2c1.64-.63,3.31-1.2,5-1.79.29-.1.58-.31.91-.14a1.54,1.54,0,0,1,0,1.14c-.42,1.37-.83,2.75-1.37,4.07a11.71,11.71,0,0,1-3.37,4.51c-.6.5-1.22,1-1.83,1.47-.06.09-.16.18-.18.28s.11.13.15,0A.89.89,0,0,0,37.47,11.21Z"/><path d="M56.44,73.32c1-.08,1.94-.17,2.89-.24a5.81,5.81,0,0,1,2,.15,1.43,1.43,0,0,1,1.12,1.32c0,.27,0,.54,0,.74a.58.58,0,0,0,.6.23c1-.16,2-.39,3.05-.46,1.64-.1,3.29-.15,4.93-.12a20,20,0,0,1,6.07,1,2.39,2.39,0,0,0,1.21,0c.88-.15,1.77-.24,2.65-.4a8.23,8.23,0,0,1,2.46.07,1.8,1.8,0,0,1,1.07.56,1.33,1.33,0,0,1,.34,1.14c0,.11.08.23.15.39.8,0,1.62,0,2.44-.1a7.73,7.73,0,0,1,3,.56,3.84,3.84,0,0,1,2.1,1.58c.06.1.12.31.07.36a.88.88,0,0,1-.48.31,2,2,0,0,1-.81-.1,18.68,18.68,0,0,0-8.15-.53c-1.3.14-2.6.17-3.91.21a20.55,20.55,0,0,0-2.87.16A.42.42,0,0,1,76.1,80a.4.4,0,0,1,.15-.54,2.83,2.83,0,0,1,.86-.54,6.24,6.24,0,0,1,2.22-.4,5.7,5.7,0,0,0,2.41-.43.45.45,0,0,0-.52-.26,50.52,50.52,0,0,0-7.92,1.33c-2.15.43-4.3.83-6.46,1.17a7.78,7.78,0,0,1-.78,0c-.13-.24-.16-.45,0-.59a6.14,6.14,0,0,1,2.2-1.06c2.12-.59,4.22-1.24,6.32-1.88a2.19,2.19,0,0,0,.46-.28,1.06,1.06,0,0,0-1-.31,53.4,53.4,0,0,0-8,.46c-1.36.19-2.69.56-4,.82s-2.7.48-4.06.71a4.46,4.46,0,0,1-.82,0,.7.7,0,0,1-.68-.37.89.89,0,0,1,.08-1,4.86,4.86,0,0,1,.73-.72c.15-.13.37-.19.51-.33s0-.24,0-.36-.11-.09-.16-.08c-.47.06-1,.11-1.42.22l-8.85,2a14.93,14.93,0,0,1-1.62.28,1.35,1.35,0,0,1-.58-.16.49.49,0,0,1-.12-.71,2.75,2.75,0,0,1,.67-.44c1.23-.44,2.44-.92,3.7-1.25a27.87,27.87,0,0,0,3.07-1.18.61.61,0,0,0,.43-.63c-.11,0-.23-.14-.34-.12-1.09.13-2.19.21-3.26.42-2,.39-3.89.86-5.83,1.31a18.26,18.26,0,0,0-3,.88,15,15,0,0,1-2,.54,26.19,26.19,0,0,0-5.11,1.56.67.67,0,0,1-.87-.32.44.44,0,0,1,.05-.56.87.87,0,0,1,.33-.23c3-1,6-1.86,9-2.94,2.34-.85,4.76-1.33,7.15-2a21.33,21.33,0,0,1,4.69-.54,8.09,8.09,0,0,1,1,.06,1.4,1.4,0,0,1,1.35,1.07A3.54,3.54,0,0,0,56.44,73.32Z"/><path d="M20.27,74.4a71.17,71.17,0,0,0-7.06,2.83c-1.75.8-3.54,1.5-5.32,2.24-.88.37-1.76.77-2.66,1.11a1.66,1.66,0,0,1-.8,0s-.1-.24-.07-.34a.54.54,0,0,1,.26-.29c2.34-1.16,4.66-2.34,7-3.44,2.86-1.33,5.72-2.68,8.69-3.77.45-.17.87-.42,1.31-.6s.88-.31,1.7-.6a7,7,0,0,0-2.36.33,15,15,0,0,0-1.57.48c-.32.11-.62.31-.94.4a42.39,42.39,0,0,0-6.89,2.72A84.32,84.32,0,0,0,1.29,81a3,3,0,0,1-.73.34.41.41,0,0,1-.37-.12A.78.78,0,0,1,0,80.7a2.45,2.45,0,0,1,1-1.26c1.07-.74,2.11-1.53,3.22-2.22a55.53,55.53,0,0,1,5.91-3.31l1.3-.62a47.59,47.59,0,0,1,12-3.61,12.07,12.07,0,0,1,1.64-.09,3.41,3.41,0,0,1,1.93.57,47.36,47.36,0,0,1,8.19-2c-.28.77-.28.77-2,1.47a42.82,42.82,0,0,0,5.34-.93,13.82,13.82,0,0,1,4.91-.27c.25,0,.55.1.64.48a2,2,0,0,1-.49.26,51.23,51.23,0,0,0-6,1.65c-.26.09-.53.13-.8.21-2.12.6-4.25,1.15-6.34,1.81s-4.28,1.46-6.37,2.34c-2.79,1.17-5.52,2.46-8.21,3.83-1.1.56-2.17,1.18-3.28,1.73a5.84,5.84,0,0,1-1.35.45c-.15,0-.37-.13-.51-.25s-.11-.61.07-.74.54-.43.82-.62a65.59,65.59,0,0,1,6-3.57c.67-.34,1.36-.67,2-1a2.52,2.52,0,0,0,.53-.6c.42-.09.89,0,1.26-.33-.12,0-.25-.13-.34-.1C20.84,74.09,20.56,74.25,20.27,74.4Zm3-1.24.27,0,0,0Z"/><path d="M19.7,32.34a2.61,2.61,0,0,1-.55.47,3.8,3.8,0,0,1-1.9.35c-1.36-.1-2.74-.09-4.09-.27a55.87,55.87,0,0,1-5.76-1,8.48,8.48,0,0,1-3.11-1.58,1.45,1.45,0,0,1-.52-1.57A2.78,2.78,0,0,1,4.94,26.8a1.44,1.44,0,0,0,.59-.74,4.83,4.83,0,0,1,1.85-2.21,14.55,14.55,0,0,1,2.45-1.56,15.89,15.89,0,0,1,5.32-1.81c.51-.07,1-.27,1.51-.39a6.45,6.45,0,0,1,2.52-.13,1.37,1.37,0,0,1,.56.15.72.72,0,0,1,.3.47.58.58,0,0,1-.26.47,12,12,0,0,1-1.31.37c-1.07.28-2.16.48-3.19.86a17.7,17.7,0,0,0-6.83,4.4,4.15,4.15,0,0,0-.35.46.42.42,0,0,0,.15.5,5.44,5.44,0,0,0,1.28.44,28.51,28.51,0,0,1,4.35,1.09c1.19.3,2.37.67,3.57,1A2.72,2.72,0,0,1,19.7,32.34Z"/><path d="M6.58,44.51c-.91-.32-1.2-.84-.77-1.43A36.16,36.16,0,0,1,8.1,40.16a6.62,6.62,0,0,1,1.7-1.29c1-.57,2-1.18,3-1.76a23,23,0,0,1,4.5-1.87A33.93,33.93,0,0,1,24,34a18,18,0,0,1,5.26.23.42.42,0,0,1,.27.22.41.41,0,0,1-.2.49,2,2,0,0,1-.5.3,10.08,10.08,0,0,1-1.49.42c-1.47.24-2.94.47-4.4.82a48.15,48.15,0,0,0-9.59,3.28,18.9,18.9,0,0,0-1.83,1.11c-.88.55-1.77,1.1-2.65,1.66A9.19,9.19,0,0,0,6.58,44.51Z"/><path d="M26,37.63a14.21,14.21,0,0,1-3.54,1.61,30.56,30.56,0,0,0-6.66,3.23,73.23,73.23,0,0,0-6.26,4.67l-.29.26A3.15,3.15,0,0,0,8,49.93a1,1,0,0,1-.58.94.66.66,0,0,1-.87-.12,1.44,1.44,0,0,1-.31-.49,3.85,3.85,0,0,1,.42-3,11,11,0,0,1,1.84-2,29.94,29.94,0,0,1,9.64-6.18,60.23,60.23,0,0,1,6.57-1.83,1.5,1.5,0,0,1,1.25.42Z"/><path d="M45.16,70c1-.19,2.1-.44,3.24-.65a12.45,12.45,0,0,1,4.09,0,1.62,1.62,0,0,1,.57.22.45.45,0,0,1,.21.31.41.41,0,0,1-.21.29.85.85,0,0,1-.4.07,22.27,22.27,0,0,0-5.08.64c-2.75.6-5.46,1.34-8.13,2.2-2.28.73-4.51,1.63-6.75,2.48-3.46,1.32-6.75,3-10.16,4.46-.44.18-.83.46-1.27.66a.39.39,0,0,1-.34-.13.45.45,0,0,1-.06-.38,2,2,0,0,1,1.06-.91c1.42-.7,2.83-1.4,4.26-2.06,2.42-1.13,4.83-2.29,7.29-3.33A70.11,70.11,0,0,1,45.16,70Z"/><path d="M17.83,25.08a6.82,6.82,0,0,1-.21.81.78.78,0,0,1-1.27.16,3.6,3.6,0,0,1-.49-.82,1.12,1.12,0,0,1,1.24-1.43.78.78,0,0,1,.71.77C17.82,24.71,17.82,24.83,17.83,25.08Z"/><path d="M26,37.68s0-.08,0,0Z"/></g></g><text x="0" y="96.37" fill="#000000" font-size="5px" font-weight="bold" font-family="'Helvetica Neue', Helvetica, Arial-Unicode, Arial, Sans-serif">Created by Evan Bond</text><text x="0" y="101.37" fill="#000000" font-size="5px" font-weight="bold" font-family="'Helvetica Neue', Helvetica, Arial-Unicode, Arial, Sans-serif">from the Noun Project</text></svg>