<svg xmlns="http://www.w3.org/2000/svg" xmlns:xlink="http://www.w3.org/1999/xlink" version="1.1" x="0px" y="0px" viewBox="0 0 24 30" style="enable-background:new 0 0 24 24;" xml:space="preserve"><path d="M21.784,11.476H7.37c-0.289,0-0.524,0.235-0.524,0.524s0.235,0.524,0.524,0.524h14.413c0.289,0,0.524-0.235,0.524-0.524  S22.073,11.476,21.784,11.476z"/><path d="M21.871,6.322H7.37c-0.289,0-0.524,0.235-0.524,0.524c0,0.289,0.235,0.524,0.524,0.524h14.501  c0.289,0,0.524-0.235,0.524-0.524C22.395,6.557,22.16,6.322,21.871,6.322z"/><path d="M21.871,16.804H7.37c-0.289,0-0.524,0.235-0.524,0.524c0,0.289,0.235,0.524,0.524,0.524h14.501  c0.289,0,0.524-0.235,0.524-0.524C22.395,17.039,22.16,16.804,21.871,16.804z"/><path d="M3.439,4.924c-1.011,0-1.834,0.823-1.834,1.834c0,1.012,0.823,1.834,1.834,1.834c1.012,0,1.834-0.823,1.834-1.834  C5.274,5.747,4.451,4.924,3.439,4.924z M3.439,7.545c-0.434,0-0.786-0.353-0.786-0.786c0-0.433,0.353-0.786,0.786-0.786  s0.786,0.353,0.786,0.786C4.226,7.192,3.873,7.545,3.439,7.545z"/><path d="M3.439,10.166c-1.011,0-1.834,0.823-1.834,1.834s0.823,1.834,1.834,1.834c1.012,0,1.834-0.823,1.834-1.834  S4.451,10.166,3.439,10.166z M3.439,12.786c-0.434,0-0.786-0.353-0.786-0.786s0.353-0.786,0.786-0.786S4.226,11.566,4.226,12  S3.873,12.786,3.439,12.786z"/><path d="M3.439,15.407c-1.011,0-1.834,0.823-1.834,1.834c0,1.011,0.823,1.834,1.834,1.834c1.012,0,1.834-0.823,1.834-1.834  C5.274,16.23,4.451,15.407,3.439,15.407z M3.439,18.027c-0.434,0-0.786-0.353-0.786-0.786c0-0.434,0.353-0.786,0.786-0.786  s0.786,0.353,0.786,0.786C4.226,17.675,3.873,18.027,3.439,18.027z"/><text x="0" y="39" fill="#000000" font-size="5px" font-weight="bold" font-family="'Helvetica Neue', Helvetica, Arial-Unicode, Arial, Sans-serif">Created by Storm Icons</text><text x="0" y="44" fill="#000000" font-size="5px" font-weight="bold" font-family="'Helvetica Neue', Helvetica, Arial-Unicode, Arial, Sans-serif">from the Noun Project</text></svg>