<svg xmlns="http://www.w3.org/2000/svg" xmlns:xlink="http://www.w3.org/1999/xlink" version="1.1" x="0px" y="0px" viewBox="0 0 100 125"><path d="M384,986 c-240,0,-389,-161,-389,-365 c0,-99,79,-322,613,-577 c28,-13,73,-44,184,-44 l258,0 c0,106,-94,103,-300,107 c-1,282,-57,450,-243,630 l-79,-8 c282,-130,372,-299,372,-520 l295,222 l-207,229 c-62,84,-211,326,-504,326 Z M146,153 c-54,-2,-96,-33,-96,-103 c0,0,206,-2,352,42 l-148,79 c-35,-12,-71,-17,-108,-18 Z M965,699 l97,38 c-60,253,-187,442,-373,554 c0,-185,94,-386,276,-592 Z M1109,1291 c-81,-157,-81,-340,0,-486 c79,146,79,329,0,486 Z M813,590 l282,-160 c95,0,205,12,205,86 c0,119,-177,263,-306,221 Z M-200,595 c0,-204,314,-204,314,0 c0,196,-314,196,-314,0 Z M-200,595 " fill="#000000" stroke="none" stroke-dasharray="none" stroke-linecap="inherit" stroke-linejoin="inherit" stroke-width="1" transform="matrix(0.0416666666667,0.0,0.0,-0.0416666666667,25.0,75.0)"/><text x="0" y="115" fill="#000000" font-size="5px" font-weight="bold" font-family="'Helvetica Neue', Helvetica, Arial-Unicode, Arial, Sans-serif">Created by Thomas Helbig</text><text x="0" y="120" fill="#000000" font-size="5px" font-weight="bold" font-family="'Helvetica Neue', Helvetica, Arial-Unicode, Arial, Sans-serif">from the Noun Project</text></svg>