<svg xmlns="http://www.w3.org/2000/svg" xmlns:xlink="http://www.w3.org/1999/xlink" version="1.1" preserveAspectRatio="none" x="0px" y="0px" viewBox="0 0 100 125"><defs><g id="a"><path fill="#000000" stroke="none" d=" M 40.75 22.1 L 40.6 19.5 40.55 19.2 40.45 18.9 40.4 18.6 39.8 16.6 39.3 15.55 39.2 15.4 39.15 15.2 38.4 14 38.3 13.8 37.45 12.65 37.45 12.6 37.35 12.5 37.25 12.45 36.85 11.9 35.35 10.4 33.3 8.9 31.4 7.9 Q 29.5 7.05 27.05 6.65 L 26.75 6.65 26.1 6.55 25.8 6.55 25.3 6.5 22.3 6.65 Q 19.6 7.1 17.5 8.15 L 16.35 8.75 13.75 10.65 13.55 10.85 13.45 10.9 13.4 11 12.4 11.95 12.35 12.05 12.2 12.2 9.75 15.6 9.7 15.75 9.65 15.85 9.6 15.9 8.95 17.4 Q 8.45 18.85 8.25 19.9 L 8.15 20.55 8.15 20.75 8.1 20.9 8.1 21.2 8.05 21.55 8.05 23.75 8.1 24.1 8.1 24.25 8.15 24.4 8.15 24.65 8.2 24.8 8.2 25 Q 8.35 26.2 8.65 27.4 9 28.7 9.4 29.7 L 9.75 30.45 9.75 30.5 10.4 31.85 12 34.3 12.35 34.75 12.5 35 13.1 35.65 13.1 35.7 13.25 35.85 13.6 36.3 16.05 38.75 16.3 38.9 16.75 39.3 18.45 40.45 18.55 40.55 18.7 40.6 19.2 40.9 19.3 41 19.45 41.05 19.7 41.2 20 41.3 20.25 41.45 22.45 42.25 23.9 42.55 24.05 42.55 24.2 42.6 24.45 42.6 24.55 42.65 24.8 42.65 24.9 42.7 26.7 42.75 26.95 42.7 27.55 42.7 29.2 42.45 30.25 42.15 30.75 41.95 31.05 41.9 31.3 41.8 33.4 40.75 33.65 40.6 34.05 40.3 34.5 40.05 34.9 39.75 35.05 39.6 35.25 39.45 36.15 38.65 36.35 38.5 36.7 38.15 36.75 38.05 36.85 37.95 36.95 37.8 37.2 37.5 37.3 37.45 37.3 37.4 37.35 37.35 37.4 37.35 38.55 35.8 39.85 33.4 40.4 31.7 40.45 31.4 40.55 31.1 40.8 29.35 40.8 27.45 40.75 27.25 40.75 27.05 40.55 25.8 40.45 25.6 40.4 25.25 40.3 25 40.55 23.9 Q 40.6 23.75 40.7 22.5 L 40.75 22.1 M 28.8 13.8 L 29.95 14.15 30.05 14.15 30.1 14.2 30.45 14.3 30.6 14.4 30.75 14.45 31.35 14.75 31.5 14.8 31.65 14.9 33.4 15.9 33.65 16.1 33.75 16.2 Q 33.796875 16.2 33.75 16.15 L 34.2 16.55 34.35 16.65 34.45 16.75 34.8 17 34.9 17.1 35.15 17.3 37.35 19.85 37.6 20.3 37.75 20.5 37.85 20.7 38 20.9 38.6 22.05 38.95 22.95 39.05 23.1 39.25 23.7 39.3 23.95 39.65 24.95 39.45 25.55 39.4 25.65 39.4 25.75 39.1 26.55 38.95 26.85 38.85 27.15 38.65 27.5 Q 38.6 27.75 38.5 27.85 L 38.15 28.65 38 28.85 37.8 29.25 37.65 29.45 37.55 29.65 37.25 30.05 37.1 30.3 36.3 31.35 36.1 31.55 35.75 32 35.1 32.6 34.9 32.85 34.8 32.95 34.65 33.05 33.8 33.75 33.8 33.8 33.7 33.85 33.4 34.1 33.25 34.2 33.2 34.25 32.85 34.45 32.75 34.55 32.6 34.65 Q 32.4 34.75 32.35 34.85 L 31.75 35.2 31.6 35.25 31.45 35.35 30.85 35.65 30.7 35.75 30.2 35.95 30.15 36 30.05 36 29.9 36.1 29.25 36.35 Q 28.3 36.7 26.4 37.05 L 26.2 37.1 26 37.1 25.2 37.25 24.95 37.25 24.8 37.3 24.55 37.3 23.95 37.4 Q 23.4 37.4 23.1 37.45 L 21.8 37.45 21.4 37.4 21.15 37.4 20.95 37.35 20.6 37.35 20.5 37.3 20.05 37.25 19.9 37.2 19.8 37.2 18.25 36.75 17.8 36.55 Q 17.2 36.3 16.1 35.6 L 15.3 35 15.15 34.85 15.1 34.85 14.55 34.3 13.25 32.75 12.95 32.2 12.9 32.15 12.3 30.95 11.9 29.75 11.9 29.6 11.85 29.5 11.65 28.5 11.65 28.25 11.6 28 11.55 27 11.6 26.5 11.6 26.2 11.65 25.95 11.65 25.7 11.75 25 11.75 24.95 11.8 24.9 11.8 24.75 11.85 24.45 11.85 24.35 11.9 24.25 11.9 24.2 12 23.75 12.05 23.65 12.1 23.5 12.2 23.05 12.9 21.3 Q 13.7 19.9 13.8 19.7 L 14.85 18.3 Q 15.45 17.55 16.05 17 L 16.35 16.7 16.55 16.55 16.6 16.5 16.7 16.45 17.4 15.85 17.5 15.8 17.55 15.75 17.75 15.65 17.9 15.5 18.65 15.1 18.8 15 19 14.9 19.15 14.8 20.25 14.3 20.45 14.25 20.55 14.2 20.65 14.2 21 14.05 21.1 14.05 21.2 14 21.75 13.85 22.1 13.8 22.7 13.65 22.9 13.65 24.4 13.45 26.3 13.45 26.7 13.5 27.05 13.5 27.25 13.55 27.4 13.55 28.1 13.65 28.45 13.75 28.8 13.8 M 83.3 58.9 L 81.4 57.9 Q 79.5 57.05 77.05 56.65 L 76.75 56.65 76.1 56.55 75.8 56.55 75.3 56.5 72.3 56.65 Q 69.6 57.1 67.5 58.15 L 65.55 59.25 63.75 60.65 63.55 60.85 63.45 60.9 63.4 61 62.4 61.95 62.35 62.05 61.55 62.95 59.75 65.6 59.7 65.75 59.65 65.85 59.6 65.9 58.95 67.4 Q 58.45 68.85 58.25 69.9 L 58.15 70.55 58.15 70.75 58.1 70.9 58.1 71.2 58.05 71.55 58.05 73.75 58.1 74.1 58.1 74.25 58.15 74.4 58.2 74.95 58.2 75.15 58.25 75.3 58.45 76.5 58.55 76.8 58.65 77.4 Q 59 78.7 59.4 79.7 L 59.75 80.45 59.75 80.5 61.65 83.85 62.35 84.75 62.5 85 63.1 85.65 63.1 85.7 66.05 88.75 66.3 88.9 66.75 89.3 68.45 90.45 68.55 90.55 68.7 90.6 69.2 90.9 69.3 91 69.45 91.05 69.7 91.2 70 91.3 70.25 91.45 72.45 92.25 73.9 92.55 74.05 92.55 74.2 92.6 74.45 92.6 74.55 92.65 74.8 92.65 74.9 92.7 76.7 92.75 76.95 92.7 77.55 92.7 79.2 92.45 80.25 92.15 80.75 91.95 81.05 91.9 81.3 91.8 83.65 90.6 84.05 90.3 84.5 90.05 84.9 89.75 85.05 89.6 85.25 89.45 86.15 88.65 86.35 88.5 86.7 88.15 86.75 88.05 86.85 87.95 86.95 87.8 87.2 87.5 87.3 87.45 87.3 87.4 87.35 87.35 87.4 87.35 88.55 85.8 89.85 83.4 90.4 81.7 90.45 81.4 90.55 81.1 90.85 78.35 90.8 77.45 90.75 77.25 90.75 77.05 90.55 75.8 90.45 75.6 90.4 75.25 90.3 75 90.55 73.9 Q 90.6 73.75 90.7 72.5 L 90.75 72.1 90.6 69.5 90.55 69.2 89.8 66.6 89.3 65.55 89.2 65.4 89.15 65.2 88.4 64 88.3 63.8 87.45 62.65 87.45 62.6 87.35 62.5 87.25 62.45 86.85 61.9 85.35 60.4 83.3 58.9 M 81.35 64.75 L 81.5 64.8 81.65 64.9 82.55 65.35 83.65 66.1 83.75 66.2 Q 83.796875 66.2 83.75 66.15 L 84.2 66.55 84.35 66.65 84.45 66.75 84.8 67 85.35 67.5 85.55 67.75 86.15 68.35 87.35 69.85 87.45 70.05 87.75 70.5 87.85 70.7 88 70.9 88.6 72.05 88.95 72.95 89.05 73.1 89.25 73.7 89.3 73.95 89.65 74.95 89.45 75.55 89.4 75.65 89.4 75.75 89.1 76.55 88.95 76.85 88.85 77.15 88.65 77.5 Q 88.6 77.75 88.5 77.85 L 88.15 78.65 88 78.85 87.8 79.25 87.65 79.45 87.55 79.65 86.3 81.35 86.1 81.55 85.75 82 84.8 82.95 84.65 83.05 83.95 83.65 83.8 83.75 83.8 83.8 83.7 83.85 83.4 84.1 83.25 84.2 83.2 84.25 82.85 84.45 82.75 84.55 82.6 84.65 Q 82.4 84.75 82.35 84.85 L 81.75 85.2 81.6 85.25 81.45 85.35 80.85 85.65 80.7 85.75 80.2 85.95 80.15 86 80.05 86 79.9 86.1 79.25 86.35 Q 78.3 86.7 76.4 87.05 L 76.2 87.1 76 87.1 75.2 87.25 74.95 87.25 74.8 87.3 74.55 87.3 73.95 87.4 Q 73.4 87.4 73.1 87.45 L 71.8 87.45 71.4 87.4 71.15 87.4 70.95 87.35 70.6 87.35 70.5 87.3 70.05 87.25 69.9 87.2 69.8 87.2 68.25 86.75 67.8 86.55 Q 67.2 86.3 66.1 85.6 L 65.3 85 65.15 84.85 65.1 84.85 64.2 83.95 63.25 82.75 62.95 82.2 62.9 82.15 62.3 80.95 61.9 79.75 61.9 79.6 61.85 79.5 61.65 78.5 61.65 78.25 61.6 78 61.55 77 61.6 76.5 61.6 76.2 61.65 75.95 61.65 75.7 61.7 75.45 61.7 75.2 61.75 75.1 61.75 75 61.85 74.45 61.85 74.35 61.9 74.25 61.9 74.2 62 73.75 62.05 73.65 62.1 73.5 62.2 73.05 62.9 71.3 Q 63.7 69.9 63.8 69.7 L 64.85 68.3 Q 65.45 67.55 66.05 67 L 66.35 66.7 66.55 66.55 66.6 66.5 66.7 66.45 67.4 65.85 67.5 65.8 67.55 65.75 67.75 65.65 67.9 65.5 68.65 65.1 68.8 65 69 64.9 69.15 64.8 70.25 64.3 70.45 64.25 70.55 64.2 70.65 64.2 71 64.05 71.1 64.05 71.2 64 72.7 63.65 72.9 63.65 74.4 63.45 76.3 63.45 76.7 63.5 77.05 63.5 77.25 63.55 77.4 63.55 78.1 63.65 78.45 63.75 78.8 63.8 79.95 64.15 80.05 64.15 80.1 64.2 80.45 64.3 80.6 64.4 80.75 64.45 81.35 64.75 M 84.15 18.9 L 90.2 10.2 Q 90.4 9.95 90.1 9.75 89.95 9.65 89.75 9.75 L 81.05 15.8 Q 79.1 17.35 75.5 20.5 L 69.4 26.5 Q 67.95 28.1 63.45 34.05 L 60.3 38.05 Q 58.3 40.3 56.75 41.8 55.5 43.05 54.85 43.6 L 40.5 55.4 32.9 62.25 Q 30 64.9 26.1 69 L 19.15 76.9 15.1 82 14.9 82.35 13.2 84.6 Q 13.1 84.8 13 84.85 L 9.75 89.75 Q 9.55 90 9.85 90.2 10.05 90.3 10.2 90.2 L 15.1 86.95 Q 15.15 86.85 15.35 86.75 L 17.6 85.05 17.95 84.85 26.05 78.2 Q 26.35 78 26.45 77.85 26.75 77.65 26.85 77.5 L 30.95 73.85 Q 35.05 69.95 37.7 67.05 L 52.9 49.15 Q 54 47.75 54.6 47.1 L 58.15 43.2 Q 59.65 41.65 61.9 39.65 L 65.9 36.5 Q 71.85 32 73.45 30.55 L 75.1 29 75.45 28.6 75.85 28.25 79.45 24.45 Q 82.6 20.85 84.15 18.9 Z"/></g></defs><g transform="matrix( 1, 0, 0, 1, 0,0) "><use xlink:href="#a"/></g><text x="0" y="115" fill="#000000" font-size="5px" font-weight="bold" font-family="'Helvetica Neue', Helvetica, Arial-Unicode, Arial, Sans-serif">Created by Veronika Krpciarova</text><text x="0" y="120" fill="#000000" font-size="5px" font-weight="bold" font-family="'Helvetica Neue', Helvetica, Arial-Unicode, Arial, Sans-serif">from the Noun Project</text></svg>