<svg xmlns="http://www.w3.org/2000/svg" xmlns:xlink="http://www.w3.org/1999/xlink" version="1.1" x="0px" y="0px" viewBox="0 0 100 125" style="enable-background:new 0 0 100 100;" xml:space="preserve"><path d="M69.31982,55.04004c3.30859,0,6-2.69141,6-6s-2.69141-6-6-6s-6,2.69141-6,6S66.01123,55.04004,69.31982,55.04004z   M69.31982,45.04004c2.20557,0,4,1.79443,4,4s-1.79443,4-4,4s-4-1.79443-4-4S67.11426,45.04004,69.31982,45.04004z"/><path d="M26.61328,73.875h-4.49756c-0.55225,0-1,0.44775-1,1v5.47412h-0.29639c-2.14111,0-3.8833,1.74219-3.8833,3.8833V89  c0,0.55225,0.44775,1,1,1H81.7959c0.55225,0,1-0.44775,1-1v-4.76758c0-2.14111-1.74219-3.8833-3.8833-3.8833h-0.29688V74.875  c0-0.55225-0.44775-1-1-1H73.1153c8.13251-6.84247,12.92523-17.00928,12.92523-27.7002c0-4.97992-1.04578-9.9245-3.02106-14.46045  l1.66656,0.87256c0.146,0.07666,0.30518,0.11426,0.46387,0.11426c0.20752,0,0.41455-0.06445,0.58887-0.19189  c0.30762-0.22363,0.46143-0.60303,0.39648-0.97803l-1.06494-6.18555l4.51318-4.38232  c0.27344-0.26514,0.37207-0.66309,0.25439-1.02588c-0.11768-0.3623-0.43066-0.62646-0.80811-0.68115l-6.24023-0.90283  l-2.79004-5.63086c-0.16846-0.34082-0.51611-0.55615-0.896-0.55615s-0.72705,0.21533-0.896,0.55615l-2.79053,5.63086  l-2.07538,0.30023C66.80627,13.07361,58.47327,10,49.86572,10c-19.94678,0-36.17432,16.22803-36.17432,36.1748  C13.69141,56.85754,18.48401,67.03363,26.61328,73.875z M80.7959,84.23242V88H18.93604v-3.76758  c0-1.03857,0.84473-1.8833,1.8833-1.8833H78.9126C79.95117,82.34912,80.7959,83.19385,80.7959,84.23242z M76.61572,80.34912h-53.5  V75.875h53.5V80.34912z M76.22314,20.25781c0.32568-0.04736,0.60693-0.25098,0.75293-0.5459l2.12744-4.29297l2.12695,4.29297  c0.146,0.29492,0.42725,0.49854,0.75293,0.5459l4.74805,0.68701l-3.43311,3.3335c-0.23682,0.22998-0.34473,0.56152-0.28857,0.88721  l0.81104,4.71094l-4.25342-2.22705c-0.14502-0.07617-0.30469-0.11426-0.46387-0.11426s-0.31885,0.03809-0.46387,0.11426  l-4.25342,2.22705l0.81104-4.71094c0.05615-0.32568-0.05176-0.65771-0.28857-0.88721l-3.43359-3.3335L76.22314,20.25781z   M49.86572,12c7.52863,0,14.83197,2.49261,20.77368,7.04474l-1.46265,0.21161c-0.37744,0.05469-0.69092,0.31885-0.80811,0.68115  c-0.11768,0.36279-0.01904,0.76074,0.25439,1.02588l4.51367,4.38232l-1.06494,6.18555  c-0.06494,0.375,0.08887,0.75439,0.39648,0.97803c0.30713,0.2251,0.71631,0.25439,1.05273,0.07764l5.58252-2.92285l0.97864,0.51239  c0.00629,0.01324,0.00519,0.02777,0.01208,0.04083c2.58154,4.87988,3.94629,10.39795,3.94629,15.95752  c0,10.92432-5.28906,21.27734-14.14795,27.69482c-0.00208,0.00146-0.00293,0.00385-0.00494,0.00537h-40.0777  c-0.02747-0.02521-0.04327-0.05853-0.0741-0.08105c-8.79443-6.42041-14.04443-16.74512-14.04443-27.61914  C15.69141,27.33057,31.02197,12,49.86572,12z"/><path d="M28.75,60.79688c-0.06494,0.375,0.08887,0.75391,0.39648,0.97803c0.17432,0.12695,0.38086,0.19189,0.58887,0.19189  c0.15869,0,0.31738-0.0376,0.46338-0.11377l6.18311-3.2334l6.18311,3.2334c0.33691,0.17627,0.74463,0.146,1.05225-0.07812  s0.46143-0.60303,0.39648-0.97803l-1.1792-6.84131l4.99805-4.84668c0.27344-0.26514,0.37256-0.66309,0.25488-1.02588  c-0.11719-0.36279-0.43066-0.62695-0.80811-0.68164l-6.91162-0.99854l-3.08984-6.22803c-0.33789-0.68066-1.4541-0.68066-1.79199,0  L32.396,46.40283l-6.91113,0.99854c-0.37744,0.05469-0.69092,0.31885-0.80811,0.68164  c-0.11768,0.36279-0.01855,0.76074,0.25488,1.02588l4.99805,4.84668L28.75,60.79688z M27.78516,49.08984l5.4165-0.78271  c0.3252-0.04688,0.60645-0.25098,0.75293-0.54541l2.42725-4.89258l2.42725,4.89258c0.14648,0.29443,0.42773,0.49854,0.75293,0.54541  l5.41699,0.78271l-3.91602,3.79736c-0.23682,0.22998-0.34521,0.56201-0.28906,0.8877l0.92529,5.36865l-4.854-2.53857  c-0.14502-0.07568-0.3042-0.11377-0.46338-0.11377s-0.31836,0.03809-0.46338,0.11377l-4.854,2.53809l0.92578-5.36816  c0.05615-0.32568-0.05225-0.65771-0.28906-0.8877L27.78516,49.08984z"/><path d="M48.27539,30.42676l-0.89014,5.16357c-0.06494,0.375,0.08887,0.75391,0.39648,0.97803  c0.30713,0.22363,0.71484,0.25391,1.05225,0.07812l4.66846-2.44141l4.66846,2.44141c0.146,0.07617,0.30469,0.11377,0.46338,0.11377  c0.20752,0,0.41455-0.06494,0.58887-0.19189c0.30762-0.22412,0.46143-0.60303,0.39648-0.97803l-0.89014-5.16357l3.77246-3.65869  c0.27344-0.26514,0.37256-0.66309,0.25488-1.02588c-0.11719-0.36279-0.43066-0.62695-0.80811-0.68164l-5.21777-0.75391  l-2.33252-4.70166c-0.33789-0.68066-1.4541-0.68066-1.79199,0l-2.33252,4.70166l-5.21826,0.75391  c-0.37744,0.05469-0.69092,0.31885-0.80811,0.68164c-0.11768,0.36279-0.01855,0.76074,0.25488,1.02588L48.27539,30.42676z   M51.07959,26.21094c0.3252-0.04688,0.60645-0.25098,0.75293-0.54541l1.66992-3.36621l1.66992,3.36621  c0.14648,0.29443,0.42773,0.49854,0.75293,0.54541l3.72363,0.53809l-2.69092,2.60938  c-0.23682,0.22998-0.34521,0.56201-0.28906,0.8877l0.63623,3.69043l-3.33936-1.74609c-0.29004-0.15137-0.63672-0.15137-0.92676,0  l-3.33936,1.74609l0.63623-3.69043c0.05615-0.32568-0.05225-0.65771-0.28906-0.8877l-2.69092-2.60938L51.07959,26.21094z"/><path d="M57.35059,64.44141h-2.22656v-2.19775c0-0.55225-0.44775-1-1-1s-1,0.44775-1,1v2.19775h-2.22656c-0.55225,0-1,0.44775-1,1  s0.44775,1,1,1h2.22656v2.19775c0,0.55225,0.44775,1,1,1s1-0.44775,1-1v-2.19775h2.22656c0.55225,0,1-0.44775,1-1  S57.90283,64.44141,57.35059,64.44141z"/><path d="M29.07666,30.75h2.22656v2.19775c0,0.55225,0.44775,1,1,1s1-0.44775,1-1V30.75h2.22656c0.55225,0,1-0.44775,1-1  s-0.44775-1-1-1h-2.22656v-2.19775c0-0.55225-0.44775-1-1-1s-1,0.44775-1,1V28.75h-2.22656c-0.55225,0-1,0.44775-1,1  S28.52441,30.75,29.07666,30.75z"/><text x="0" y="115" fill="#000000" font-size="5px" font-weight="bold" font-family="'Helvetica Neue', Helvetica, Arial-Unicode, Arial, Sans-serif">Created by Made x Made</text><text x="0" y="120" fill="#000000" font-size="5px" font-weight="bold" font-family="'Helvetica Neue', Helvetica, Arial-Unicode, Arial, Sans-serif">from the Noun Project</text></svg>